<svg width="36" height="36" viewBox="0 0 36 36" fill="none" xmlns="http://www.w3.org/2000/svg">
<path d="M25 19H19V25H17V19H11V17H17V11H19V17H25V19Z" fill="#333333"/>
<path d="M3 1H33V-1H3V1ZM35 3V33H37V3H35ZM33 35H3V37H33V35ZM1 33V3H-1V33H1ZM3 35C1.89543 35 1 34.1046 1 33H-1C-1 35.2091 0.79086 37 3 37V35ZM35 33C35 34.1046 34.1046 35 33 35V37C35.2091 37 37 35.2091 37 33H35ZM33 1C34.1046 1 35 1.89543 35 3H37C37 0.790861 35.2091 -1 33 -1V1ZM3 -1C0.790861 -1 -1 0.79086 -1 3H1C1 1.89543 1.89543 1 3 1V-1Z" fill="#DDDDDD"/>
</svg>
