<svg width="32" height="32" viewBox="0 0 32 32" fill="none" xmlns="http://www.w3.org/2000/svg">
<path d="M28 21.3339V10.6672C27.9995 10.1996 27.8761 9.74027 27.6421 9.3354C27.408 8.93054 27.0717 8.59434 26.6667 8.36052L17.3333 3.02719C16.9279 2.79314 16.4681 2.66992 16 2.66992C15.5319 2.66992 15.0721 2.79314 14.6667 3.02719L5.33333 8.36052C4.92835 8.59434 4.59197 8.93054 4.35795 9.3354C4.12392 9.74027 4.00048 10.1996 4 10.6672V21.3339C4.00048 21.8015 4.12392 22.2608 4.35795 22.6656C4.59197 23.0705 4.92835 23.4067 5.33333 23.6405L14.6667 28.9739C15.0721 29.2079 15.5319 29.3311 16 29.3311C16.4681 29.3311 16.9279 29.2079 17.3333 28.9739L26.6667 23.6405C27.0717 23.4067 27.408 23.0705 27.6421 22.6656C27.8761 22.2608 27.9995 21.8015 28 21.3339Z" stroke="#3459E6" stroke-width="2" stroke-linecap="round" stroke-linejoin="round"/>
<path d="M4.35999 9.28125L16 16.0146L27.64 9.28125" stroke="#3459E6" stroke-width="2" stroke-linecap="round" stroke-linejoin="round"/>
<path d="M16 29.44V16" stroke="#3459E6" stroke-width="2" stroke-linecap="round" stroke-linejoin="round"/>
</svg>
