<svg width="36" height="37" viewBox="0 0 36 37" fill="none" xmlns="http://www.w3.org/2000/svg">
<circle cx="18" cy="18.5" r="18" fill="#4A80FF" fill-opacity="0.15"/>
<path d="M20 8.5H12C11.4696 8.5 10.9609 8.71071 10.5858 9.08579C10.2107 9.46086 10 9.96957 10 10.5V26.5C10 27.0304 10.2107 27.5391 10.5858 27.9142C10.9609 28.2893 11.4696 28.5 12 28.5H24C24.5304 28.5 25.0391 28.2893 25.4142 27.9142C25.7893 27.5391 26 27.0304 26 26.5V14.5L20 8.5Z" stroke="#3459E6" stroke-width="2" stroke-linecap="round" stroke-linejoin="round"/>
<path d="M20 8.5V14.5H26" stroke="#3459E6" stroke-width="2" stroke-linecap="round" stroke-linejoin="round"/>
<path d="M22 19.5H14" stroke="#3459E6" stroke-width="2" stroke-linecap="round" stroke-linejoin="round"/>
<path d="M22 23.5H14" stroke="#3459E6" stroke-width="2" stroke-linecap="round" stroke-linejoin="round"/>
<path d="M16 15.5H15H14" stroke="#3459E6" stroke-width="2" stroke-linecap="round" stroke-linejoin="round"/>
</svg>
