<svg width="25" height="18" viewBox="0 0 25 18" fill="none" xmlns="http://www.w3.org/2000/svg">
<path fill-rule="evenodd" clip-rule="evenodd" d="M0 1C0 0.447715 0.447715 0 1 0H24C24.5523 0 25 0.447715 25 1C25 1.55228 24.5523 2 24 2H1C0.447715 2 0 1.55228 0 1Z" fill="#343A40"/>
<path fill-rule="evenodd" clip-rule="evenodd" d="M0 9C0 8.44772 0.447715 8 1 8H24C24.5523 8 25 8.44772 25 9C25 9.55228 24.5523 10 24 10H1C0.447715 10 0 9.55228 0 9Z" fill="#343A40"/>
<path fill-rule="evenodd" clip-rule="evenodd" d="M0 17C0 16.4477 0.447715 16 1 16H24C24.5523 16 25 16.4477 25 17C25 17.5523 24.5523 18 24 18H1C0.447715 18 0 17.5523 0 17Z" fill="#343A40"/>
</svg>
